<?xml version="1.0" encoding="utf-8"?>
<!-- Generator: Adobe Illustrator 22.0.1, SVG Export Plug-In . SVG Version: 6.00 Build 0)  -->
<svg version="1.1" id="Слой_1" xmlns="http://www.w3.org/2000/svg" xmlns:xlink="http://www.w3.org/1999/xlink" x="0px" y="0px"
	 viewBox="0 0 286.7 284" style="enable-background:new 0 0 286.7 284;" xml:space="preserve">
<style type="text/css">
	.st0{fill:#FFFFFF;}
</style>
<g>
	<path class="st0" d="M47.1,230.5c0-4.6-0.9-6.2-4.1-7.6l-3.2-1.3c-1.9-0.7-2.2-1.4-2.2-3.6c0-1.2,0.2-2.1,0.7-2.6
		c0.4-0.5,1-0.8,1.8-0.8c0.9,0,1.5,0.3,1.9,0.8c0.6,0.7,0.7,1.7,0.7,2.9h4.2c0-2.6-0.5-4.5-1.9-5.9c-1.1-1.1-2.7-1.6-4.8-1.6
		c-1.9,0-3.4,0.6-4.6,1.6c-1.5,1.3-2.2,3.3-2.2,5.7c0,4.2,1,5.6,3.7,6.8l3.2,1.3c2,0.8,2.5,1.5,2.5,4.4c0,1.5-0.1,2.3-0.7,3
		c-0.4,0.5-1,0.7-2,0.7c-0.9,0-1.6-0.3-2-0.7c-0.6-0.7-0.8-1.6-0.8-3h-4.2c0,2.9,0.5,4.5,1.7,5.8c1.1,1.1,2.9,1.8,5.2,1.8
		c2.4,0,4.1-0.7,5.2-1.8C46.7,235.1,47.1,233.3,47.1,230.5L47.1,230.5z M64.4,238v-27h-4.2v11.4H55V211h-4.2v27H55v-11.8h5.2V238
		H64.4z M84,238l-6.5-27h-4.1l-6.6,27h4.4l1-5.4h6.2l1.1,5.4H84z M77.7,228.8h-4.6l2.3-11.3L77.7,228.8z M100.1,230.2
		c0-2.5-0.3-4.1-1.6-5.4c-0.4-0.4-0.9-0.7-1.4-1c0.6-0.2,1-0.6,1.4-0.9c1.2-1.3,1.5-2.8,1.5-4.7c0-2.9-0.5-4.3-1.7-5.5
		c-1.1-1.1-2.7-1.7-5.2-1.7h-6.7v27h6.6c2.5,0,4.1-0.6,5.3-1.7C99.6,234.9,100.1,233.4,100.1,230.2L100.1,230.2z M95.9,229.9
		c0,3.1-0.9,4.2-3.2,4.2h-2v-8.4h2C94.9,225.7,95.9,226.9,95.9,229.9L95.9,229.9z M95.8,218.4c0,2.6-0.9,3.7-3,3.7h-2.1v-7.3h2.1
		C94.9,214.8,95.8,215.8,95.8,218.4L95.8,218.4z M119.1,238l-6.5-27h-4.1l-6.5,27h4.4l1-5.4h6.2l1.1,5.4H119.1z M112.8,228.8h-4.6
		l2.3-11.3L112.8,228.8z M132.8,238v-3.8h-7V211h-4.2v27H132.8z M140.1,238v-27h-4.2v27H140.1z M158.9,238v-27h-4.2v16l-6.3-16h-3.7
		v27h4.2v-16l6.3,16H158.9z M183.3,230.8v-7.4h-6.8v3.5h2.6v4.2c0,1.9-0.8,3.5-2.6,3.5c-1,0-1.6-0.4-2-1c-0.8-1.3-0.9-4-0.9-8.9
		s0.1-7.7,0.9-9c0.4-0.6,1-1,2-1c2.3,0,2.6,2.2,2.6,3.7h4.2c-0.1-2.3-0.8-4.3-2.1-5.7c-1.1-1.1-2.7-1.8-4.8-1.8
		c-2.5,0-4.1,1-5.2,2.3c-1.8,2.1-2,5.1-2,11.5c0,6.4,0.2,9.4,2,11.5c1.1,1.3,2.7,2.3,5.2,2.3C180.5,238.3,183.3,235.7,183.3,230.8
		L183.3,230.8z M201.6,238l-4-12c2.4-1.3,3.1-3.7,3.1-7.1c0-5.6-2-8-6.8-8h-6.7v27h4.2v-11.1h2.4l3.5,11.1H201.6z M196.5,218.9
		c0,2.2-0.3,4.2-2.6,4.2h-2.6v-8.3h2.6C196.2,214.8,196.5,216.7,196.5,218.9L196.5,218.9z M218.4,224.5c0-6.4-0.1-9.4-2-11.5
		c-1.1-1.3-2.7-2.3-5.2-2.3c-2.5,0-4.1,1-5.2,2.3c-1.8,2.1-2,5.1-2,11.5c0,6.4,0.2,9.3,2,11.5c1.1,1.3,2.7,2.3,5.2,2.3
		c2.5,0,4.1-1,5.2-2.3C218.3,233.8,218.4,230.9,218.4,224.5L218.4,224.5z M214.2,224.5c0,4.9-0.1,7.6-0.9,8.9c-0.4,0.6-1,1-2,1
		c-1,0-1.6-0.4-2-1c-0.8-1.3-0.9-4-0.9-8.9s0.1-7.7,0.9-9c0.4-0.6,1-1,2-1c1,0,1.7,0.4,2,1C214.1,216.8,214.2,219.6,214.2,224.5
		L214.2,224.5z M235.6,231.3V211h-4.2v20.6c0,1.9-1.2,2.9-2.6,2.9c-1.4,0-2.6-0.9-2.6-2.9V211H222v20.4c0,2.1,0.7,3.8,1.8,5
		c1.3,1.3,3,1.9,5,1.9c2,0,3.7-0.6,4.9-1.9C234.9,235.1,235.6,233.4,235.6,231.3L235.6,231.3z M253.5,219.2c0-5.7-2-8.2-6.9-8.2
		h-6.7v27h4.2v-10.6h2.5C251.5,227.4,253.5,224.9,253.5,219.2L253.5,219.2z M249.3,219.2c0,2.7-0.6,4.4-2.8,4.4h-2.4v-8.8h2.4
		C248.7,214.8,249.3,216.5,249.3,219.2L249.3,219.2z"/>
	<path class="st0" d="M151.6,79.6c10.2,0,11.1,2.3,12,4.9c0.5,1.4,1.3,2.8,1.9,4.2l-3.1-2c-2.9-1.9-3.2-1.7-4-1.3
		c-1,0.6-2.7,1.4-6.9,1.4h-1v-7.2H151.6z M208.1,118.8c-8.6-11.3-13.6-19.8-17-33.4c-1.9-7.7-4.3-22.8-3.6-30.1l-22.1,14.4
		c-0.3,1.3-0.3,2.9,0.5,4.1c1.9,3.1,3.9,5.4,5.7,8.8c2.7,5.3,5.1,12.5,3.3,18.4c4.4,2.2,8.2,4.8,12.1,7.8
		C194.6,114.7,198.3,117.5,208.1,118.8L208.1,118.8z M140,105.4c-1.5-1.6-4-0.3-5.6,0.4l-0.9-1.8c-1.3-2.7-1.6-6.5-2-9.4
		c1.8,1.1,4.4,3.2,6.5,3.4c1.7,0.2,3.3-0.3,5.4-0.4c2.2,0,3.8,0.6,5.6,0.4c1.9-0.2,4.6-2.3,6.3-3.4c-0.5,2.9-0.8,6.7-2,9.4l-0.9,1.8
		c-1.6-0.7-4.1-2.1-5.6-0.4c-1.9,2-1.3,3.8,0.1,5.7c2.1,3,4.8,5.5,8.3,6.5c2.9,0.8,5.7,1.4,7.2-1.7c1.8-3.4,1.4-7.8,1.1-11.6
		c5.9-0.5,8.3-2.3,7.8-9c-0.3-3.7-1.8-7.6-3.4-10.8c-1.5-2.9-5.5-7.8-6.3-10.1c-1.6-4.4,0.7-6.8,0.4-10.8c-0.4-6.2-6.2-4.4-9.9-2
		c-3.6,2.3-6,5.1-8.6,8.3c-2.6-3.1-5.2-6.1-8.6-8.3c-5-3.1-10.5-3.7-9.9,3.7c0.6,3.2,1.5,5.7,0.4,9c-1,2.9-4.6,7-6.3,10.2
		c-1.7,3.3-3.1,7.1-3.4,10.8c-0.5,6.6,1.9,8.5,7.8,9c-0.3,3.8-0.6,8.2,1.1,11.6c1.2,2.4,3.5,2.6,5.8,2.1c4.7-1,7.7-3.8,10.4-7.7
		C141.6,108.7,141.2,106.7,140,105.4L140,105.4z M113.4,49.1c4.3,0.5,8.5,3.8,11.3,7c3.7-2,8.4-0.4,11.7,1.6
		c-1.2-1.6-2.4-3.1-3.7-4.6c-3.2-3.9-6.2-7.5-7.3-11.7c-8.3,2.2-15.2,5.5-20.3,8c-1.4,0.7-2.7,1.3-4.1,1.9l4.5,2.8
		c0.3-1,0.7-1.8,1.3-2.6C108.5,49.5,110.9,48.8,113.4,49.1L113.4,49.1z M99.1,55.1c0.7,9.2-1.4,21.6-3.6,30.7
		c-3.3,13.2-8.5,22-16.7,32.8c7.5-1.2,12-3.8,17.9-8.4c3-2.4,5.8-4.6,9.1-6.6c1.9-1.2,3.9-2.2,5.9-3.2c-1.4-5.8,0.9-12.7,3.5-17.8
		c1.5-2.9,5.5-7.8,6.2-10c0.4-1.2,0.2-2.2-0.1-3.6c-3.7-2.3-7.3-4.7-11-7L99.1,55.1z M173,104.8c-1.3,1.6-3.1,2.7-5,3.2
		c0,3.3-0.3,6.9-1.8,9.8c-1.4,2.7-3.5,4.6-6.7,4.5v1.4c5,4.2,8.4,9.8,11.6,15.1c3.9,6.3,7.4,12.1,12.8,13.3c5.9,1.3,9-2.8,12.6-6.9
		c4.8-5.4,9.4-12.4,13.5-22c-12.7-1.3-16.7-4.4-25.5-11.1c-2.4-1.8-4.7-3.5-7.2-5.1C175.8,106.3,174.4,105.5,173,104.8L173,104.8z
		 M215.3,121.2c-0.9,2.2-1.8,4.4-2.8,6.6c-7.6,16.5-16.3,25-25.7,31.7c-6.8,4.9-14.1,8.9-20.8,13.9c-8.8,6.5-15.1,13-22.7,24.1
		c-7.1-10.2-13-16.6-20.7-22.6c-7-5.4-14.6-9.7-21.9-14.8c-9.6-6.8-18.7-15.3-26.4-32.1c-1-2.3-2-4.5-2.9-6.8
		c9.2-11.7,16.2-21.4,20-36.4C94,74.5,96.7,59.5,94,49.6c2.5-0.9,3.7-1.4,6-2.4c1.1-0.5,2.2-1,3.4-1.6c5.7-2.7,13.3-6.4,22.7-8.7
		c5.1-5.1,10.2-8.7,17.3-10.5c6.8,1.8,12.3,5.5,17.3,10.5c9.4,2.3,17,6,22.7,8.7c3.4,1.6,6.2,2.8,9.6,4c-3.1,9.9-0.2,24.9,2.2,34.7
		C199,99.8,205.8,109.2,215.3,121.2L215.3,121.2z M109.5,56.6l0.2,0.1l11,6.7c0.1-1.5,0.5-3,1.1-4.3c-1.4-1.7-2.9-3.1-4.5-4.1
		c-1.6-1-5.4-3-7-0.8C109.8,54.8,109.6,55.6,109.5,56.6L109.5,56.6z M76.7,123.2c4.3,10,9,17.2,14.1,22.8c3.6,4,6.4,7.7,12.1,6.3
		c5.4-1.3,8.9-7,12.7-13.3c3.2-5.3,6.7-11,11.7-15.1v-1.4c-3.1,0-5.2-1.9-6.6-4.5c-1.5-3-1.8-6.6-1.8-9.8c-2.2-0.6-4.1-1.8-5.4-3.8
		c-5.8,2.7-9.9,6-14.9,9.8c-3.3,2.5-6.2,4.4-9.3,5.8C85.7,121.6,81.8,122.6,76.7,123.2L76.7,123.2z M155.2,122
		c-5.1-1.1-8.8-4.2-11.8-8.4c-3,4.2-6.7,7.4-11.9,8.4v5.8c0,4.5,0.9,3.6,4.5,2.2c2.3-0.9,4.8-1.8,7.4-1.8c2.7,0,5.2,1,7.4,1.8
		c3.7,1.4,4.4,2.2,4.4-2.2V122z M159.3,129.6c-0.4,4.4-2.2,5.7-4.9,5.7c-2.7,0-6.1-2-9-2.7v54.7c6-7.7,12.1-13.1,18.1-17.4
		c6.4-4.7,13.4-8.6,19.9-13.2c-7.3-1.1-11.5-8-16-15.6C165.1,137.2,162.5,133,159.3,129.6L159.3,129.6z M141.3,132.7
		c-2.8,0.7-6.2,2.6-9,2.6c-2.7,0-4.6-1.4-5-5.8c-3.2,3.4-5.7,7.6-8.1,11.6c-4.6,7.6-8.8,14.5-16,15.6c7.1,5,14.5,9.1,21.4,14.3
		c5.5,4.2,11.1,9.2,16.6,16.3V132.7z M169.7,55.1c-1.6,1.1-3.2,2.5-4.6,4.2c0.7,1.3,1,2.9,1.1,4.6l11.4-7.3c-0.1-1-0.4-1.8-0.8-2.4
		C175.2,52.1,171.4,54,169.7,55.1L169.7,55.1z M136.1,50.4c2.6,3.1,5.4,6.5,7.4,10.4c1.9-3.8,4.6-7,7.1-10.1c2.6-3.1,6-7,6.8-11.1
		c-4-3.9-8.7-7.2-14-8.8c-5.4,1.5-9.9,4.9-13.9,8.8C130.1,43.5,133.6,47.4,136.1,50.4L136.1,50.4z M153.8,53.4
		c-1.1,1.4-2.3,2.8-3.4,4.2c3.4-2,8.1-3.5,11.8-1.4c2.8-3.3,7.2-6.8,11.7-7.2c2.4-0.2,4.7,0.6,6.2,2.6c0.5,0.7,1,1.6,1.2,2.5
		l4.4-2.8c-1.2-0.5-2.6-1.2-4.1-1.9c-5.2-2.5-12-5.8-20.3-8C160.1,45.7,157.1,49.4,153.8,53.4L153.8,53.4z M123.7,84.5
		c1-2.5,1.8-4.9,12-4.9h1v7.2h-1c-4.2,0-5.8-0.9-6.9-1.4c-0.8-0.4-1.1-0.6-4,1.3l-3.1,2C122.4,87.3,123.2,85.9,123.7,84.5
		L123.7,84.5z"/>
</g>
</svg>
