<svg width="18" height="21" viewBox="0 0 18 21" fill="none" xmlns="http://www.w3.org/2000/svg">
<path d="M15.6293 11.8428C15.3554 11.5728 14.7473 11.4301 13.8216 11.4172C13.0944 11.418 12.3682 11.4713 11.6487 11.5766C11.2938 11.3722 10.9274 11.1485 10.6407 10.8798C9.86798 10.1585 9.22255 9.15691 8.82141 8.05506C8.84712 7.9522 8.87027 7.8622 8.89084 7.76963C8.89084 7.76963 9.32669 5.2972 9.21098 4.46148C9.20246 4.38051 9.18345 4.30098 9.15441 4.22491L9.11712 4.1272C8.99884 3.85463 8.76612 3.56534 8.40227 3.58077L8.18241 3.57434C7.77612 3.57434 7.44569 3.78134 7.35955 4.09248C7.09598 5.06577 7.36855 6.5212 7.86098 8.40606L7.73498 8.71334C7.38141 9.57477 6.93912 10.4426 6.54826 11.2076L6.49684 11.3066C6.08541 12.1115 5.71255 12.7942 5.37441 13.3728L5.02598 13.5579C5.00026 13.5708 4.40241 13.8883 4.26227 13.9732C3.07169 14.6842 2.28355 15.4903 2.15241 16.1306C2.11127 16.3351 2.14212 16.5961 2.35298 16.7169L2.69112 16.8866C2.83335 16.9589 2.99057 16.9968 3.15012 16.9972C3.99741 16.9972 4.98226 15.9416 6.33869 13.5746C7.94198 13.0563 9.58384 12.6659 11.2488 12.4072C12.4394 13.0771 13.9038 13.5425 14.827 13.5425C14.9915 13.5425 15.133 13.5271 15.2474 13.4962C15.4167 13.455 15.5653 13.3535 15.6653 13.2108C15.844 12.9408 15.8813 12.5692 15.8324 12.1886C15.8017 12.0548 15.7313 11.9334 15.6305 11.8402L15.6293 11.8428ZM2.96627 16.3543C3.12055 15.9313 3.73255 15.0956 4.63769 14.3538C4.69426 14.3075 4.83441 14.1763 4.96298 14.0542C4.01669 15.5636 3.38284 16.1653 2.96627 16.3531V16.3543ZM8.32641 4.01148C8.59898 4.01148 8.75455 4.69806 8.76741 5.3422C8.78026 5.98634 8.62984 6.43891 8.44341 6.7732C8.28912 6.2782 8.21327 5.49777 8.21327 4.98734C8.21327 4.98734 8.20169 4.01148 8.32641 4.01148ZM6.72698 12.8071C6.91726 12.4676 7.11398 12.1089 7.31584 11.7283C7.80827 10.7975 8.11812 10.0698 8.34955 9.47191C8.78411 10.2772 9.36285 10.9958 10.057 11.5921C10.1406 11.6628 10.2306 11.7348 10.3231 11.8055C8.95255 12.0768 7.76841 12.4059 6.72569 12.8071H6.72698ZM15.367 12.7299C15.2834 12.7826 15.0443 12.8122 14.8913 12.8122C14.395 12.8122 13.7804 12.5859 12.9203 12.2156C13.2507 12.1912 13.5541 12.1783 13.8267 12.1783C14.3243 12.1783 14.4721 12.1758 14.9581 12.3005C15.4441 12.4252 15.4506 12.6772 15.367 12.7286V12.7299Z" fill="white"/>
<path d="M17.1527 4.60157C16.7066 3.99343 16.0843 3.28114 15.4016 2.59843C14.7189 1.91571 14.0066 1.29343 13.3984 0.847286C12.3621 0.0874285 11.8594 0 11.5714 0H1.60714C0.721286 0 0 0.721286 0 1.60714V18.9643C0 19.8501 0.721286 20.5714 1.60714 20.5714H16.3929C17.2787 20.5714 18 19.8501 18 18.9643V6.42857C18 6.14057 17.9126 5.63786 17.1527 4.60157ZM14.4913 3.50871C15.1084 4.12586 15.5919 4.68129 15.9493 5.14286H12.8559V2.05071C13.3174 2.40814 13.8741 2.89157 14.49 3.50871H14.4913ZM16.7143 18.9643C16.7143 19.1391 16.5677 19.2857 16.3929 19.2857H1.60714C1.52221 19.2847 1.44103 19.2505 1.38097 19.1905C1.3209 19.1304 1.28672 19.0492 1.28571 18.9643V1.60714C1.28571 1.43357 1.43357 1.28571 1.60714 1.28571H11.5714V5.78571C11.5714 5.95621 11.6392 6.11972 11.7597 6.24028C11.8803 6.36084 12.0438 6.42857 12.2143 6.42857H16.7143V18.9643Z" fill="white"/>
</svg>
